<svg xmlns="http://www.w3.org/2000/svg" xmlns:xlink="http://www.w3.org/1999/xlink" width="1500" zoomAndPan="magnify" viewBox="0 0 1125 562.499983" height="750" preserveAspectRatio="xMidYMid meet" version="1.2"><defs><clipPath id="eab9ae981f"><path d="M 0.5 0 L 1124.5 0 L 1124.5 562 L 0.5 562 Z M 0.5 0 "/></clipPath><clipPath id="cfca38be6f"><path d="M 332.238281 370.824219 L 792.761719 370.824219 L 792.761719 374.570312 L 332.238281 374.570312 Z M 332.238281 370.824219 "/></clipPath><clipPath id="541de26b60"><path d="M 467.140625 120.09375 L 620 120.09375 L 620 236 L 467.140625 236 Z M 467.140625 120.09375 "/></clipPath></defs><g id="9b80654afc"><g clip-rule="nonzero" clip-path="url(#eab9ae981f)"><path style=" stroke:none;fill-rule:nonzero;fill:#ffffff;fill-opacity:1;" d="M 0.5 0 L 1124.5 0 L 1124.5 562 L 0.5 562 Z M 0.5 0 "/><path style=" stroke:none;fill-rule:nonzero;fill:#000000;fill-opacity:1;" d="M 0.5 0 L 1124.5 0 L 1124.5 562 L 0.5 562 Z M 0.5 0 "/></g><g clip-rule="nonzero" clip-path="url(#cfca38be6f)"><path style=" stroke:none;fill-rule:nonzero;fill:#ff0000;fill-opacity:1;" d="M 332.238281 370.824219 L 792.757812 370.824219 L 792.757812 374.570312 L 332.238281 374.570312 Z M 332.238281 370.824219 "/></g><g clip-rule="nonzero" clip-path="url(#541de26b60)"><path style=" stroke:none;fill-rule:nonzero;fill:#fa0000;fill-opacity:1;" d="M 608.609375 142.636719 C 592.089844 132.023438 569.875 136.765625 559.175781 153.1875 C 550.289062 166.824219 551.972656 184.25 562.179688 195.9375 C 545.160156 216.605469 521.996094 230.027344 497.09375 235.277344 C 481.972656 238.464844 467.472656 227.207031 467.148438 211.824219 C 467.140625 211.617188 467.140625 211.40625 467.140625 211.195312 C 467.183594 197.273438 478.570312 185.875 492.550781 185.75 C 495.003906 185.726562 497.378906 186.050781 499.625 186.667969 C 499.324219 184.96875 499.164062 183.214844 499.164062 181.425781 C 499.164062 165.261719 512.074219 152.097656 528.191406 151.59375 C 535.015625 133.214844 552.777344 120.113281 573.613281 120.113281 C 595.464844 120.113281 613.929688 134.523438 619.949219 154.320312 C 617.214844 149.75 613.410156 145.71875 608.609375 142.636719 "/></g><path style=" stroke:none;fill-rule:nonzero;fill:#ad0707;fill-opacity:1;" d="M 583.078125 207.6875 C 596.757812 210.042969 611.152344 204.328125 619.207031 192.015625 C 625.457031 182.457031 626.507812 171.019531 623.0625 161.007812 C 639.785156 163.585938 652.9375 176.933594 655.128906 193.710938 C 658.21875 217.386719 640.765625 236.796875 616.785156 236.796875 L 552.316406 236.796875 C 563.78125 228.898438 574.195312 219.160156 583.078125 207.6875 "/><path style=" stroke:none;fill-rule:nonzero;fill:#fa0000;fill-opacity:1;" d="M 599.960938 156.128906 C 609.085938 162.042969 611.671875 174.199219 605.730469 183.285156 C 599.789062 192.371094 587.574219 194.941406 578.449219 189.027344 C 569.320312 183.113281 566.738281 170.953125 572.679688 161.871094 C 578.621094 152.785156 590.835938 150.214844 599.960938 156.128906 "/><g style="fill:#ff0000;fill-opacity:1;"><g transform="translate(260.134538, 341.912939)"><path style="stroke:none" d="M 37.953125 1.296875 C 26.234375 1.296875 17.191406 -1.675781 10.828125 -7.625 C 4.472656 -13.582031 1.296875 -23.101562 1.296875 -36.1875 C 1.296875 -61.1875 13.453125 -73.6875 37.765625 -73.6875 C 43.660156 -73.6875 49.132812 -72.972656 54.1875 -71.546875 C 59.238281 -70.117188 63.007812 -68.535156 65.5 -66.796875 L 65.5 -43.53125 L 43.171875 -43.53125 L 43.171875 -50.234375 C 43.171875 -52.585938 42.640625 -54.320312 41.578125 -55.4375 C 40.523438 -56.5625 38.945312 -57.125 36.84375 -57.125 C 34.726562 -57.125 33.144531 -56.5625 32.09375 -55.4375 C 31.039062 -54.320312 30.515625 -52.585938 30.515625 -50.234375 L 30.515625 -22.140625 C 30.515625 -19.785156 31.039062 -18.046875 32.09375 -16.921875 C 33.144531 -15.804688 34.726562 -15.25 36.84375 -15.25 C 38.945312 -15.25 40.523438 -15.804688 41.578125 -16.921875 C 42.640625 -18.046875 43.171875 -19.785156 43.171875 -22.140625 L 43.171875 -29.671875 L 65.5 -29.671875 L 65.5 -5.578125 C 62.945312 -3.847656 59.175781 -2.269531 54.1875 -0.84375 C 49.195312 0.582031 43.785156 1.296875 37.953125 1.296875 Z M 37.953125 1.296875 "/></g></g><g style="fill:#ff0000;fill-opacity:1;"><g transform="translate(327.305432, 341.912939)"><path style="stroke:none" d="M 1.671875 0.09375 L 1.671875 -15.25 L 5.765625 -15.25 L 5.765625 -57.125 L 1.671875 -57.125 L 1.671875 -72.375 L 27.171875 -72.375 L 27.171875 -15.25 L 31.265625 -15.25 L 31.265625 0.09375 Z M 1.671875 0.09375 "/></g></g><g style="fill:#ff0000;fill-opacity:1;"><g transform="translate(359.867496, 341.912939)"><path style="stroke:none" d="M 29.390625 1.296875 C 20.585938 1.296875 13.703125 -1.007812 8.734375 -5.625 C 3.773438 -10.25 1.296875 -16.992188 1.296875 -25.859375 C 1.296875 -34.734375 3.773438 -41.476562 8.734375 -46.09375 C 13.703125 -50.71875 20.585938 -53.03125 29.390625 -53.03125 C 38.328125 -53.03125 45.242188 -50.6875 50.140625 -46 C 55.046875 -41.320312 57.5 -34.609375 57.5 -25.859375 C 57.5 -16.992188 55.015625 -10.25 50.046875 -5.625 C 45.085938 -1.007812 38.203125 1.296875 29.390625 1.296875 Z M 29.390625 -15.25 C 31.191406 -15.25 32.539062 -15.726562 33.4375 -16.6875 C 34.34375 -17.65625 34.796875 -19.164062 34.796875 -21.21875 L 34.796875 -30.515625 C 34.796875 -32.554688 34.34375 -34.054688 33.4375 -35.015625 C 32.539062 -35.984375 31.191406 -36.46875 29.390625 -36.46875 C 27.597656 -36.46875 26.25 -35.984375 25.34375 -35.015625 C 24.445312 -34.054688 24 -32.554688 24 -30.515625 L 24 -21.21875 C 24 -19.164062 24.445312 -17.65625 25.34375 -16.6875 C 26.25 -15.726562 27.597656 -15.25 29.390625 -15.25 Z M 29.390625 -15.25 "/></g></g><g style="fill:#ff0000;fill-opacity:1;"><g transform="translate(418.665279, 341.912939)"><path style="stroke:none" d="M 62.890625 -15.25 L 62.890625 0 L 37.40625 0 L 37.40625 -7.25 C 32.9375 -1.550781 27.351562 1.296875 20.65625 1.296875 C 15.507812 1.296875 11.644531 -0.3125 9.0625 -3.53125 C 6.488281 -6.757812 5.203125 -11.195312 5.203125 -16.84375 L 5.203125 -36.46875 L 1.109375 -36.46875 L 1.109375 -51.71875 L 26.609375 -51.71875 L 26.609375 -21.21875 C 26.609375 -19.164062 27.054688 -17.65625 27.953125 -16.6875 C 28.859375 -15.726562 30.207031 -15.25 32 -15.25 C 33.800781 -15.25 35.148438 -15.726562 36.046875 -16.6875 C 36.953125 -17.65625 37.40625 -19.164062 37.40625 -21.21875 L 37.40625 -36.46875 L 32.375 -36.46875 L 32.375 -51.71875 L 58.796875 -51.71875 L 58.796875 -15.25 Z M 62.890625 -15.25 "/></g></g><g style="fill:#ff0000;fill-opacity:1;"><g transform="translate(482.486924, 341.912939)"><path style="stroke:none" d="M 20 1.296875 C 13.675781 1.296875 8.914062 -1.054688 5.71875 -5.765625 C 2.53125 -10.484375 0.9375 -17.179688 0.9375 -25.859375 C 0.9375 -34.546875 2.53125 -41.242188 5.71875 -45.953125 C 8.914062 -50.671875 13.675781 -53.03125 20 -53.03125 C 23.164062 -53.03125 25.972656 -52.253906 28.421875 -50.703125 C 30.867188 -49.148438 32.867188 -47.382812 34.421875 -45.40625 L 34.421875 -57.125 L 28.9375 -57.125 L 28.9375 -72.375 L 55.8125 -72.375 L 55.8125 -15.25 L 59.90625 -15.25 L 59.90625 0 L 34.421875 0 L 34.421875 -6.328125 C 32.867188 -4.335938 30.867188 -2.566406 28.421875 -1.015625 C 25.972656 0.523438 23.164062 1.296875 20 1.296875 Z M 29.03125 -15.25 C 30.820312 -15.25 32.164062 -15.726562 33.0625 -16.6875 C 33.96875 -17.65625 34.421875 -19.164062 34.421875 -21.21875 L 34.421875 -30.515625 C 34.421875 -32.554688 33.96875 -34.054688 33.0625 -35.015625 C 32.164062 -35.984375 30.820312 -36.46875 29.03125 -36.46875 C 27.226562 -36.46875 25.875 -35.984375 24.96875 -35.015625 C 24.070312 -34.054688 23.625 -32.554688 23.625 -30.515625 L 23.625 -21.21875 C 23.625 -19.164062 24.070312 -17.65625 24.96875 -16.6875 C 25.875 -15.726562 27.226562 -15.25 29.03125 -15.25 Z M 29.03125 -15.25 "/></g></g><g style="fill:#ff0000;fill-opacity:1;"><g transform="translate(543.703623, 341.912939)"><path style="stroke:none" d=""/></g></g><g style="fill:#ff0000;fill-opacity:1;"><g transform="translate(571.613954, 341.912939)"><path style="stroke:none" d="M 71.265625 -49.859375 L 55.265625 -49.859375 L 55.265625 -57.125 L 49.3125 -57.125 L 49.3125 -15.25 L 55.8125 -15.25 L 55.8125 0 L 16.75 0 L 16.75 -15.25 L 23.25 -15.25 L 23.25 -57.125 L 17.296875 -57.125 L 17.296875 -49.859375 L 1.296875 -49.859375 L 1.296875 -72.375 L 71.265625 -72.375 Z M 71.265625 -49.859375 "/></g></g><g style="fill:#ff0000;fill-opacity:1;"><g transform="translate(644.180861, 341.912939)"><path style="stroke:none" d="M 29.390625 1.296875 C 20.585938 1.296875 13.703125 -1.007812 8.734375 -5.625 C 3.773438 -10.25 1.296875 -16.992188 1.296875 -25.859375 C 1.296875 -34.734375 3.773438 -41.476562 8.734375 -46.09375 C 13.703125 -50.71875 20.585938 -53.03125 29.390625 -53.03125 C 38.328125 -53.03125 45.242188 -50.6875 50.140625 -46 C 55.046875 -41.320312 57.5 -34.609375 57.5 -25.859375 C 57.5 -16.992188 55.015625 -10.25 50.046875 -5.625 C 45.085938 -1.007812 38.203125 1.296875 29.390625 1.296875 Z M 29.390625 -15.25 C 31.191406 -15.25 32.539062 -15.726562 33.4375 -16.6875 C 34.34375 -17.65625 34.796875 -19.164062 34.796875 -21.21875 L 34.796875 -30.515625 C 34.796875 -32.554688 34.34375 -34.054688 33.4375 -35.015625 C 32.539062 -35.984375 31.191406 -36.46875 29.390625 -36.46875 C 27.597656 -36.46875 26.25 -35.984375 25.34375 -35.015625 C 24.445312 -34.054688 24 -32.554688 24 -30.515625 L 24 -21.21875 C 24 -19.164062 24.445312 -17.65625 25.34375 -16.6875 C 26.25 -15.726562 27.597656 -15.25 29.390625 -15.25 Z M 29.390625 -15.25 "/></g></g><g style="fill:#ff0000;fill-opacity:1;"><g transform="translate(702.978599, 341.912939)"><path style="stroke:none" d="M 1.296875 5.390625 L 5.390625 5.390625 L 5.390625 -36.46875 L 1.296875 -36.46875 L 1.296875 -51.71875 L 26.796875 -51.71875 L 26.796875 -45.40625 C 28.347656 -47.382812 30.347656 -49.148438 32.796875 -50.703125 C 35.242188 -52.253906 38.050781 -53.03125 41.21875 -53.03125 C 47.539062 -53.03125 52.296875 -50.671875 55.484375 -45.953125 C 58.679688 -41.242188 60.28125 -34.546875 60.28125 -25.859375 C 60.28125 -17.179688 58.679688 -10.484375 55.484375 -5.765625 C 52.296875 -1.054688 47.539062 1.296875 41.21875 1.296875 C 38.050781 1.296875 35.242188 0.523438 32.796875 -1.015625 C 30.347656 -2.566406 28.347656 -4.335938 26.796875 -6.328125 L 26.796875 5.390625 L 33.21875 5.390625 L 33.21875 20.65625 L 1.296875 20.65625 Z M 32.1875 -15.25 C 33.988281 -15.25 35.335938 -15.726562 36.234375 -16.6875 C 37.128906 -17.65625 37.578125 -19.164062 37.578125 -21.21875 L 37.578125 -30.515625 C 37.578125 -32.554688 37.128906 -34.054688 36.234375 -35.015625 C 35.335938 -35.984375 33.988281 -36.46875 32.1875 -36.46875 C 30.382812 -36.46875 29.035156 -35.984375 28.140625 -35.015625 C 27.242188 -34.054688 26.796875 -32.554688 26.796875 -30.515625 L 26.796875 -21.21875 C 26.796875 -19.164062 27.242188 -17.65625 28.140625 -16.6875 C 29.035156 -15.726562 30.382812 -15.25 32.1875 -15.25 Z M 32.1875 -15.25 "/></g></g><g style="fill:#ff0000;fill-opacity:1;"><g transform="translate(764.195297, 341.912939)"><path style="stroke:none" d=""/></g></g><g style="fill:#ff0000;fill-opacity:1;"><g transform="translate(792.105651, 341.912939)"><path style="stroke:none" d="M 72 -23.25 L 67.359375 -23.25 L 67.359375 -4.65625 C 64.628906 -3.101562 60.640625 -1.722656 55.390625 -0.515625 C 50.148438 0.691406 44.492188 1.296875 38.421875 1.296875 C 26.828125 1.296875 17.738281 -1.753906 11.15625 -7.859375 C 4.582031 -13.972656 1.296875 -23.414062 1.296875 -36.1875 C 1.296875 -49.269531 4.566406 -58.789062 11.109375 -64.75 C 17.660156 -70.707031 27.015625 -73.6875 39.171875 -73.6875 C 45.054688 -73.6875 50.570312 -73.0625 55.71875 -71.8125 C 60.875 -70.570312 64.753906 -69.179688 67.359375 -67.640625 L 67.359375 -45.40625 L 44.09375 -45.40625 L 44.09375 -49.765625 C 44.09375 -52.367188 43.550781 -54.242188 42.46875 -55.390625 C 41.382812 -56.546875 39.664062 -57.125 37.3125 -57.125 C 34.945312 -57.125 33.222656 -56.546875 32.140625 -55.390625 C 31.054688 -54.242188 30.515625 -52.367188 30.515625 -49.765625 L 30.515625 -22.609375 C 30.515625 -20.003906 31.054688 -18.125 32.140625 -16.96875 C 33.222656 -15.820312 34.945312 -15.25 37.3125 -15.25 C 39.664062 -15.25 41.382812 -15.820312 42.46875 -16.96875 C 43.550781 -18.125 44.09375 -20.003906 44.09375 -22.609375 L 44.09375 -23.25 L 39.078125 -23.25 L 39.078125 -37.125 L 72 -37.125 Z M 72 -23.25 "/></g></g></g></svg>